                    <svg b-d1sxi2kpgj="" width="236px" height="34px" viewBox="0 0 236 34" version="1.1" xmlns="http://www.w3.org/2000/svg" xmlns:xlink="http://www.w3.org/1999/xlink">
                        <defs b-d1sxi2kpgj="">
                            <path b-d1sxi2kpgj="" d="M-2.73558953e-13,18.759531 C-2.73558953e-13,21.1029202 0.531748782,23.3222787 1.48177142,25.302812 L1.48177142,12.2162501 C0.531748782,14.1981029 -2.73558953e-13,16.4161419 -2.73558953e-13,18.759531 Z M28.7329069,25.5020528 C29.742306,23.4713794 30.313639,21.1820888 30.313639,18.759531 C30.313639,16.3369733 29.742306,14.0490021 28.7329069,12.0170093 L28.7329069,25.5020528 Z M3.45702682,9.12471812 L3.45702682,28.3956634 C4.12468162,29.2045022 4.8754634,29.9407697 5.69353845,30.5965492 L5.69353845,6.92251286 C4.8754634,7.57829238 4.12468162,8.31455992 3.45702682,9.12471812 Z M24.5198204,30.6743983 C25.336576,30.0318135 26.0873578,29.3074213 26.7576515,28.5117773 L26.7576515,9.00860424 C26.0873578,8.21296028 25.336576,7.48724854 24.5198204,6.84466379 L24.5198204,30.6743983 Z M7.66879385,5.58324484 L7.66879385,31.9371367 C8.38131083,32.3422158 9.12813418,32.6945159 9.90794443,32.9821616 L9.90794443,4.53821994 C9.12813418,4.82586568 8.38131083,5.17684626 7.66879385,5.58324484 Z M20.3067339,33.0191069 C21.0839052,32.7367391 21.832048,32.3923559 22.5458845,31.9938742 L22.5458845,5.5251879 C21.832048,5.12670618 21.0839052,4.78232297 20.3067339,4.50127461 L20.3067339,33.0191069 Z M11.8818804,3.96160897 L11.8818804,33.5574531 C12.6089116,33.7184292 13.3570544,33.8266262 14.1197115,33.8767663 L14.1197115,3.64097633 C13.3570544,3.69375537 12.6089116,3.80063291 11.8818804,3.96160897 Z M16.0949669,33.8860026 C16.8576239,33.839821 17.6044473,33.7355824 18.3314785,33.5812037 L18.3314785,3.93785841 C17.6044473,3.78216025 16.8576239,3.68056061 16.0949669,3.63437895 L16.0949669,33.8860026 Z" id="path-1"></path>
                            <linearGradient b-d1sxi2kpgj="" x1="0.00833659789%" y1="50.0005552%" x2="100.010513%" y2="50.0005552%" id="linearGradient-3">
                                <stop b-d1sxi2kpgj="" stop-color="#009D3D" offset="0%"></stop>
                                <stop b-d1sxi2kpgj="" stop-color="#12A237" offset="12.56%"></stop>
                                <stop b-d1sxi2kpgj="" stop-color="#43AF29" offset="37.9%"></stop>
                                <stop b-d1sxi2kpgj="" stop-color="#8FC412" offset="73.35%"></stop>
                                <stop b-d1sxi2kpgj="" stop-color="#CDD500" offset="100%"></stop>
                            </linearGradient>
                        </defs>
                        <g b-d1sxi2kpgj="" id="Nav" stroke="none" stroke-width="1" fill="none" fill-rule="evenodd">
                            <g b-d1sxi2kpgj="" id="0.1-Nav-Hire-Equipment" transform="translate(-81.000000, -32.000000)">
                                <g b-d1sxi2kpgj="" id="Group-64" transform="translate(0.000000, 1.000000)">
                                    <g b-d1sxi2kpgj="" id="Group-3" transform="translate(81.000000, 31.000000)">
                                        <polygon b-d1sxi2kpgj="" id="Path" fill="#303430" points="231.395152 0.554824268 231.395152 3.14915934 230.703071 3.14915934 230.703071 0.554824268 229.80414 0.554824268 229.80414 0.0251314128 232.294083 0.0251314128 232.294083 0.554824268"></polygon>
                                        <path b-d1sxi2kpgj="" d="M235.955537,3.14915934 L235.342717,3.14915934 L235.342717,0.873799892 L234.666102,2.92297663 C234.619705,3.09116378 234.503714,3.17042439 234.30073,3.17042439 C234.099679,3.17042439 233.977888,3.08536422 233.923759,2.92297663 L233.260676,0.869933521 L233.260676,3.14915934 L232.669121,3.14915934 L232.669121,0.433033575 C232.669121,0.143055735 232.874039,-1.31006317e-14 233.181415,-1.31006317e-14 C233.529389,-1.31006317e-14 233.676311,0.173986704 233.751705,0.407902162 L234.314262,2.19996521 L234.901951,0.407902162 C234.977345,0.173986704 235.106868,-1.31006317e-14 235.456775,-1.31006317e-14 C235.762218,-1.31006317e-14 235.955537,0.143055735 235.955537,0.433033575 L235.955537,3.14915934 Z" id="Path" fill="#303430"></path>
                                        <polygon b-d1sxi2kpgj="" id="Path" fill="#303430" points="89.5689234 4.61258084 87.9566466 9.27155814 96.8357681 9.27155814 96.8357681 32.1276115 102.936902 32.1276115 102.936902 9.27155814 111.883685 9.27155814 111.883685 4.61258084"></polygon>
                                        <path b-d1sxi2kpgj="" d="M86.7155415,4.61258084 L80.6511383,4.61258084 L74.1053718,25.6920366 L67.6697969,4.61258084 L61.4932689,4.61258084 L69.889094,29.7227286 C70.4806488,31.4606625 71.8126137,32.3499279 73.919786,32.3499279 C76.0636888,32.3499279 77.4323842,31.4606625 78.023939,29.7227286 L86.7155415,4.61258084 Z" id="Path" fill="#303430"></path>
                                        <path b-d1sxi2kpgj="" d="M53.5266111,16.1498325 L52.4169625,17.6306527 L45.2796413,17.6306527 L45.2796413,8.97578075 L51.233853,8.97578075 C53.8223885,8.97578075 54.8933733,10.4913983 54.8933733,12.7106953 C54.8933733,14.0426602 54.265088,15.1523087 53.5266111,16.1498325 Z M56.7434319,20.3293798 L58.4446353,18.258938 C59.7379364,16.6679263 60.7006629,14.8198008 60.7006629,12.5637732 C60.7006629,7.42343271 57.483842,4.61258084 52.1579157,4.61258084 L42.6911058,4.61258084 C40.5820003,4.61258084 39.2500354,5.90588201 39.2500354,7.82940169 L39.2500354,32.1276115 L45.2796413,32.1276115 L45.2796413,21.9938526 L51.3440445,21.9938526 L55.6337834,32.1276115 L61.993964,32.1276115 L56.7434319,20.3293798 Z" id="Shape" fill="#303430" fill-rule="nonzero"></path>
                                        <path b-d1sxi2kpgj="" d="M113.289111,18.5875796 C113.289111,9.35275194 118.587972,5.05528035 125.460447,5.05528035 C127.751272,5.05528035 129.864244,5.55597542 132.690561,6.38144567 L134.409163,6.88214074 L133.945199,9.06470728 L132.118339,8.52728169 C129.398346,7.74047515 127.142319,7.23978008 125.42565,7.23978008 C119.446307,7.23978008 115.651464,10.7117814 115.651464,18.5875796 C115.651464,26.4633777 119.838744,30.0069069 125.711761,30.0069069 C127.8228,30.0069069 129.792716,29.757526 132.261394,29.185303 L132.261394,21.3810328 L125.603503,21.3810328 L125.603503,19.3763193 L132.226597,19.3763193 C133.693885,19.3763193 134.445894,20.1263953 134.445894,21.5240885 L134.445894,28.8257305 C134.445894,30.2214905 133.836941,30.7589161 132.441181,31.153286 C130.293411,31.7255089 127.751272,32.0831482 125.711761,32.0831482 C118.694298,32.0831482 113.289111,28.038924 113.289111,18.5875796" id="Path" fill="#303430"></path>
                                        <path b-d1sxi2kpgj="" d="M150.375343,7.13152168 L141.964053,7.13152168 L141.964053,18.8369605 L151.95089,18.8369605 L153.489705,16.6891913 C154.421501,15.3649592 155.279835,13.9344018 155.279835,12.2505972 C155.279835,9.27929089 153.992334,7.13152168 150.375343,7.13152168 Z M156.426214,31.7970368 L151.378667,20.8068766 L141.964053,20.8068766 L141.964053,31.7970368 L139.673228,31.7970368 L139.673228,7.27457742 C139.673228,5.87881741 140.423304,5.16353874 141.855794,5.16353874 L150.55513,5.16353874 C154.956993,5.16353874 157.607391,7.59741941 157.607391,12.2157998 C157.607391,14.1122549 156.747123,15.9023848 155.674205,17.3348753 L153.489705,20.1631258 L158.968353,31.7970368 L156.426214,31.7970368 Z" id="Shape" fill="#303430" fill-rule="nonzero"></path>
                                        <path b-d1sxi2kpgj="" d="M173.53684,7.09672434 C167.5227,7.09672434 163.870912,11.2124765 163.870912,18.550849 C163.870912,25.9626826 167.665755,30.0784348 173.608368,30.0784348 C179.55098,30.0784348 183.167971,25.99748 183.167971,18.550849 C183.167971,11.2124765 179.479453,7.09672434 173.53684,7.09672434 M173.465312,32.0831482 C166.341523,32.0831482 161.54529,27.2501842 161.54529,18.550849 C161.54529,9.92497488 166.484579,5.02048301 173.645098,5.02048301 C180.732157,5.02048301 185.530324,9.88824435 185.530324,18.550849 C185.530324,27.3584426 180.625832,32.0831482 173.465312,32.0831482" id="Shape" fill="#303430" fill-rule="nonzero"></path>
                                        <path b-d1sxi2kpgj="" d="M200.278596,32.299665 C193.835289,32.299665 190.255029,28.5415522 190.255029,22.4191534 L190.255029,5.16547193 L192.582585,5.16547193 L192.582585,22.4191534 C192.582585,27.3603758 195.124724,30.1886264 200.278596,30.1886264 C205.577458,30.1886264 208.011339,27.3951732 208.011339,22.4191534 L208.011339,5.16547193 L210.302164,5.16547193 L210.302164,22.4191534 C210.302164,28.5415522 206.758635,32.299665 200.278596,32.299665" id="Path" fill="#303430"></path>
                                        <path b-d1sxi2kpgj="" d="M225.982232,7.13345487 L218.24949,7.13345487 L218.24949,19.1617357 L225.730918,19.1617357 C229.311178,19.1617357 231.530475,16.9424386 231.530475,13.1108647 C231.530475,9.42427981 229.311178,7.13345487 225.982232,7.13345487 M225.730918,21.1297186 L218.24949,21.1297186 L218.24949,31.7970368 L216.030193,31.7970368 L216.030193,7.31130794 C216.030193,5.95227847 216.85373,5.16353874 218.321018,5.16353874 L226.125288,5.16353874 C230.455624,5.16353874 233.678244,8.17157554 233.678244,13.1475953 C233.678244,18.1584124 230.386029,21.1297186 225.730918,21.1297186" id="Shape" fill="#303430" fill-rule="nonzero"></path>
                                        <mask b-d1sxi2kpgj="" id="mask-2" fill="white">
                                            <use b-d1sxi2kpgj="" xlink:href="#path-1"></use>
                                        </mask>
                                        <g b-d1sxi2kpgj="" id="SVGID_1_"></g>
                                        <rect b-d1sxi2kpgj="" id="Rectangle" fill="url(#linearGradient-3)" mask="url(#mask-2)" x="-2.73558953e-13" y="3.63437895" width="30.313639" height="30.2516237"></rect>
                                    </g>
                                </g>
                            </g>
                        </g>
                    </svg>
